<svg width="24" height="24" viewBox="0 0 24 24" fill="none" xmlns="http://www.w3.org/2000/svg"><path d="M2.13475 19.6345C1.68725 19.6345 1.30292 19.4739 0.98175 19.1527C0.660583 18.8317 0.5 18.4475 0.5 18H4.30775C3.80258 18 3.375 17.825 3.025 17.475C2.675 17.125 2.5 16.6974 2.5 16.1923V5.30775C2.5 4.80258 2.675 4.375 3.025 4.025C3.375 3.675 3.80258 3.5 4.30775 3.5H19.6923C20.1974 3.5 20.625 3.675 20.975 4.025C21.325 4.375 21.5 4.80258 21.5 5.30775V16.1923C21.5 16.6974 21.325 17.125 20.975 17.475C20.625 17.825 20.1974 18 19.6923 18H23.5C23.5 18.4475 23.3394 18.8317 23.0182 19.1527C22.6971 19.4739 22.3127 19.6345 21.8652 19.6345H2.13475ZM12 18.8845C12.2257 18.8845 12.4167 18.8063 12.573 18.65C12.7295 18.4937 12.8078 18.3027 12.8078 18.077C12.8078 17.8513 12.7295 17.6603 12.573 17.5038C12.4167 17.3474 12.2257 17.2693 12 17.2693C11.7743 17.2693 11.5833 17.3474 11.427 17.5038C11.2705 17.6603 11.1923 17.8513 11.1923 18.077C11.1923 18.3027 11.2705 18.4937 11.427 18.65C11.5833 18.8063 11.7743 18.8845 12 18.8845ZM4.30775 16.5H19.6923C19.7693 16.5 19.8398 16.468 19.9038 16.404C19.9679 16.3398 20 16.2693 20 16.1923V5.30775C20 5.23075 19.9679 5.16025 19.9038 5.09625C19.8398 5.03208 19.7693 5 19.6923 5H4.30775C4.23075 5 4.16025 5.03208 4.09625 5.09625C4.03208 5.16025 4 5.23075 4 5.30775V16.1923C4 16.2693 4.03208 16.3398 4.09625 16.404C4.16025 16.468 4.23075 16.5 4.30775 16.5Z" fill="#374151" /><path d="M12.0009 15.5C11.3439 15.5 10.7263 15.3753 10.1482 15.126C9.57017 14.8767 9.06733 14.5383 8.63975 14.1109C8.21217 13.6835 7.87362 13.1808 7.62412 12.603C7.37471 12.0252 7.25 11.4078 7.25 10.7509C7.25 10.0939 7.37471 9.47633 7.62412 8.89825C7.87346 8.32017 8.21187 7.81733 8.63937 7.38975C9.06687 6.96217 9.56958 6.62362 10.1475 6.37412C10.7254 6.12471 11.3429 6 12 6C12.5267 6 13.025 6.07917 13.495 6.2375C13.965 6.39583 14.3962 6.61667 14.7885 6.9L14.2461 7.45488C13.923 7.23238 13.5731 7.05929 13.1963 6.93562C12.8194 6.81187 12.4207 6.75 12 6.75C10.8917 6.75 9.94792 7.13958 9.16875 7.91875C8.38958 8.69792 8 9.64167 8 10.75C8 11.8583 8.38958 12.8021 9.16875 13.5813C9.94792 14.3604 10.8917 14.75 12 14.75C13.1083 14.75 14.0521 14.3604 14.8313 13.5813C15.6104 12.8021 16 11.8583 16 10.75C16 10.5743 15.9885 10.4006 15.9654 10.2289C15.9423 10.0571 15.9077 9.89012 15.8615 9.72787L16.4673 9.11738C16.5589 9.37438 16.629 9.63879 16.6774 9.91062C16.7258 10.1824 16.75 10.4622 16.75 10.75C16.75 11.4071 16.6253 12.0246 16.376 12.6025C16.1267 13.1804 15.7883 13.6831 15.3609 14.1106C14.9335 14.5381 14.4308 14.8765 13.853 15.1259C13.2752 15.3753 12.6578 15.5 12.0009 15.5ZM11.2904 12.8769L9.3385 10.925L9.86538 10.3981L11.2904 11.8231L16.2231 6.88275L16.75 7.40963L11.2904 12.8769Z" fill="#14b8a6" /></svg>